<?xml version="1.0" encoding="UTF-8" standalone="no"?>
<!-- Created with Inkscape (http://www.inkscape.org/) -->

<svg
   width="24"
   height="24"
   viewBox="0 0 6.3499998 6.3499998"
   version="1.1"
   id="svg5"
   sodipodi:docname="kivar-icon.inkscape.svg"
   inkscape:export-filename="../source/de_markh_kivar-icon-light.png"
   inkscape:version="1.2.2 (b0a8486541, 2022-12-01)"
   inkscape:export-xdpi="96"
   inkscape:export-ydpi="96"
   xmlns:inkscape="http://www.inkscape.org/namespaces/inkscape"
   xmlns:sodipodi="http://sodipodi.sourceforge.net/DTD/sodipodi-0.dtd"
   xmlns:xlink="http://www.w3.org/1999/xlink"
   xmlns="http://www.w3.org/2000/svg"
   xmlns:svg="http://www.w3.org/2000/svg">
  <sodipodi:namedview
     id="namedview7"
     pagecolor="#808080"
     bordercolor="#666666"
     borderopacity="1.0"
     inkscape:pageshadow="2"
     inkscape:pageopacity="0"
     inkscape:pagecheckerboard="true"
     inkscape:document-units="mm"
     showgrid="true"
     width="24px"
     units="px"
     inkscape:object-paths="true"
     inkscape:snap-others="true"
     inkscape:snap-to-guides="false"
     inkscape:snap-smooth-nodes="true"
     inkscape:snap-bbox="true"
     inkscape:snap-center="true"
     inkscape:snap-object-midpoints="true"
     inkscape:snap-midpoints="true"
     inkscape:snap-intersection-paths="true"
     inkscape:snap-bbox-midpoints="true"
     inkscape:snap-bbox-edge-midpoints="true"
     inkscape:bbox-nodes="true"
     inkscape:bbox-paths="true"
     inkscape:zoom="22.627417"
     inkscape:cx="5.3916892"
     inkscape:cy="13.015184"
     inkscape:window-width="1920"
     inkscape:window-height="1029"
     inkscape:window-x="1080"
     inkscape:window-y="576"
     inkscape:window-maximized="1"
     inkscape:current-layer="layer3"
     showguides="true"
     inkscape:guide-bbox="true"
     inkscape:showpageshadow="2"
     inkscape:deskcolor="#808080">
    <inkscape:grid
       type="xygrid"
       id="grid824"
       empspacing="2"
       spacingx="0.13229166"
       spacingy="0.13229166"
       color="#3f3fff"
       opacity="0.0627451"
       dotted="false" />
  </sodipodi:namedview>
  <defs
     id="defs2">
    <inkscape:path-effect
       effect="fill_between_many"
       method="originald"
       linkedpaths="#g7082-4-9,0,1|#rect1988-3,0,1"
       id="path-effect2603" />
    <inkscape:path-effect
       effect="fill_between_many"
       method="originald"
       linkedpaths="#g7082-4-9,0,1|#rect1988-3,0,1"
       id="path-effect2574" />
    <linearGradient
       id="linearGradient2379">
      <stop
         style="stop-color:#000000;stop-opacity:1;"
         offset="0"
         id="stop2377" />
    </linearGradient>
    <linearGradient
       id="linearGradient2373">
      <stop
         style="stop-color:#000000;stop-opacity:1;"
         offset="0"
         id="stop2371" />
    </linearGradient>
    <linearGradient
       id="linearGradient2355">
      <stop
         style="stop-color:#800000;stop-opacity:1;"
         offset="0"
         id="stop2353" />
    </linearGradient>
    <linearGradient
       id="package_dark"
       inkscape:swatch="solid">
      <stop
         style="stop-color:#dcd1db;stop-opacity:1;"
         offset="0"
         id="stop1084" />
    </linearGradient>
    <linearGradient
       id="package_light"
       inkscape:swatch="solid">
      <stop
         style="stop-color:#535353;stop-opacity:1;"
         offset="0"
         id="stop1078" />
    </linearGradient>
    <linearGradient
       id="pin_dark"
       inkscape:swatch="solid">
      <stop
         style="stop-color:#42b8eb;stop-opacity:1;"
         offset="0"
         id="stop1066" />
    </linearGradient>
    <linearGradient
       id="pin_light"
       inkscape:swatch="solid">
      <stop
         style="stop-color:#1a81c4;stop-opacity:1;"
         offset="0"
         id="stop1054" />
    </linearGradient>
    <linearGradient
       id="arrow_dark"
       inkscape:swatch="solid">
      <stop
         style="stop-color:#f2647e;stop-opacity:1;"
         offset="0"
         id="stop1046" />
    </linearGradient>
    <linearGradient
       id="arrow_light"
       inkscape:swatch="solid">
      <stop
         style="stop-color:#bf2641;stop-opacity:1;"
         offset="0"
         id="stop1038" />
    </linearGradient>
    <linearGradient
       inkscape:collect="always"
       xlink:href="#pin_light"
       id="linearGradient1058"
       x1="0"
       y1="0.79374999"
       x2="1.3229166"
       y2="0.79374999"
       gradientUnits="userSpaceOnUse"
       gradientTransform="matrix(3.7795276,0,0,3.7795276,-1.0000002,1.0000001)" />
    <inkscape:path-effect
       effect="fill_between_many"
       method="originald"
       linkedpaths="#g7082-4-9,0,1|#rect1988-3,0,1"
       id="path-effect2060" />
    <linearGradient
       inkscape:collect="always"
       xlink:href="#pin_light"
       id="linearGradient2905"
       gradientUnits="userSpaceOnUse"
       gradientTransform="matrix(3.7795276,0,0,3.7795276,-9.9999998,-12)"
       x1="0"
       y1="0.79374999"
       x2="1.3229166"
       y2="0.79374999" />
    <linearGradient
       inkscape:collect="always"
       xlink:href="#arrow_light"
       id="linearGradient2357"
       x1="0.99999917"
       y1="12.001976"
       x2="22.999998"
       y2="12.001976"
       gradientUnits="userSpaceOnUse" />
    <linearGradient
       inkscape:collect="always"
       xlink:href="#package_light"
       id="linearGradient2375"
       x1="1.0233225"
       y1="2.0625889"
       x2="2.8123605"
       y2="2.0625889"
       gradientUnits="userSpaceOnUse" />
    <linearGradient
       inkscape:collect="always"
       xlink:href="#package_light"
       id="linearGradient2381"
       x1="1.0233225"
       y1="2.0625889"
       x2="2.8123605"
       y2="2.0625889"
       gradientUnits="userSpaceOnUse" />
    <linearGradient
       inkscape:collect="always"
       xlink:href="#package_dark"
       id="linearGradient2706"
       gradientUnits="userSpaceOnUse"
       x1="1.0233225"
       y1="2.0625889"
       x2="2.8123605"
       y2="2.0625889" />
    <linearGradient
       inkscape:collect="always"
       xlink:href="#package_dark"
       id="linearGradient2708"
       gradientUnits="userSpaceOnUse"
       x1="1.0233225"
       y1="2.0625889"
       x2="2.8123605"
       y2="2.0625889" />
    <linearGradient
       inkscape:collect="always"
       xlink:href="#pin_dark"
       id="linearGradient2710"
       gradientUnits="userSpaceOnUse"
       gradientTransform="matrix(3.7795276,0,0,3.7795276,-9.9999998,-12)"
       x1="0"
       y1="0.79374999"
       x2="1.3229166"
       y2="0.79374999" />
    <linearGradient
       inkscape:collect="always"
       xlink:href="#pin_dark"
       id="linearGradient2712"
       gradientUnits="userSpaceOnUse"
       gradientTransform="matrix(3.7795276,0,0,3.7795276,-1.0000002,1.0000001)"
       x1="0"
       y1="0.79374999"
       x2="1.3229166"
       y2="0.79374999" />
    <linearGradient
       inkscape:collect="always"
       xlink:href="#arrow_dark"
       id="linearGradient1507"
       gradientUnits="userSpaceOnUse"
       x1="0.99999917"
       y1="12.001976"
       x2="22.999998"
       y2="12.001976" />
  </defs>
  <g
     inkscape:groupmode="layer"
     id="layer3"
     inkscape:label="Light Theme"
     style="display:inline"
     sodipodi:insensitive="true">
    <g
       id="g2893"
       transform="translate(0.26458332)">
      <path
         id="path2858"
         style="color:#000000;display:inline;fill:url(#linearGradient2381);fill-opacity:1;fill-rule:evenodd;stroke-width:3.77953;stroke-linecap:square;-inkscape-stroke:none"
         d="M 1.9902344,1.0039062 V 10 H 11.005859 V 1.0039062 H 8.3398438 7.8378906 7.3261719 v 0.4921876 c -5e-7,0.2910826 -0.1570365,0.5575848 -0.4140625,0.703125 -0.2570281,0.1455406 -0.5691459,0.1455406 -0.8261719,0 C 5.8369416,2.0582263 5.6812892,1.8039351 5.671875,1.5234375 c -3.037e-4,-0.00905 0,-0.018247 0,-0.027344 V 1.0039062 H 5.1699219 4.6582031 Z m 1.0136718,0.9941407 h 1.7285157 c 0.1323871,0.4413682 0.4356497,0.8250367 0.8515625,1.0605469 0.5680428,0.3216503 1.2718009,0.3216503 1.8398437,0 C 7.8397324,2.8230872 8.1360597,2.4394017 8.265625,1.9980469 H 9.9921875 V 9.0058594 H 3.0039062 Z"
         transform="scale(0.26458333)" />
      <path
         id="rect848-1"
         style="display:inline;fill:url(#linearGradient1058);fill-opacity:1;stroke:none;stroke-width:2.82834;stroke-linecap:round;stroke-linejoin:round;paint-order:markers stroke fill"
         d="M 0,3 V 5 H 5 V 3 Z m 8,0 v 2 h 5 V 3 Z M 0,6 V 8 H 5 V 6 Z m 8,0 v 2 h 5 V 6 Z"
         transform="scale(0.26458333)" />
    </g>
    <g
       id="g2901"
       transform="translate(2.6458331,3.4395831)">
      <path
         id="path2895"
         style="color:#000000;display:inline;fill:url(#linearGradient2375);fill-opacity:1;fill-rule:evenodd;stroke-width:3.77953;stroke-linecap:square;-inkscape-stroke:none"
         d="M 1.9902344,1.0039062 V 10 H 11.005859 V 1.0039062 H 8.3398438 7.8378906 7.3261719 v 0.4921876 c -5e-7,0.2910826 -0.1570365,0.5575848 -0.4140625,0.703125 -0.2570281,0.1455406 -0.5691459,0.1455406 -0.8261719,0 C 5.8369416,2.0582263 5.6812892,1.8039351 5.671875,1.5234375 c -3.037e-4,-0.00905 0,-0.018247 0,-0.027344 V 1.0039062 H 5.1699219 4.6582031 Z m 1.0136718,0.9941407 h 1.7285157 c 0.1323871,0.4413682 0.4356497,0.8250367 0.8515625,1.0605469 0.5680428,0.3216503 1.2718009,0.3216503 1.8398437,0 C 7.8397324,2.8230872 8.1360597,2.4394017 8.265625,1.9980469 H 9.9921875 V 9.0058594 H 3.0039062 Z"
         transform="scale(0.26458333)" />
      <path
         id="path2899"
         style="display:inline;fill:url(#linearGradient2905);fill-opacity:1;stroke:none;stroke-width:2.82834;stroke-linecap:round;stroke-linejoin:round;paint-order:markers stroke fill"
         d="M 0,3 V 5 H 5 V 3 Z m 8,0 v 2 h 5 V 3 Z M 0,6 V 8 H 5 V 6 Z m 8,0 v 2 h 5 V 6 Z"
         transform="scale(0.26458333)" />
    </g>
    <path
       id="rect1323"
       style="display:inline;opacity:1;fill:url(#linearGradient2357);fill-opacity:1;stroke-width:0.463234;stroke-linecap:square"
       d="M 14.5,3.3574219 V 5.4589844 C 17.135248,6.4605435 18.997237,9.004539 18.998047,12 h 2 C 20.997172,7.9093113 18.247001,4.4443541 14.5,3.3574219 Z M 3.0019531,12 v 0.002 c 0,4.091578 2.7503964,7.557462 6.4980469,8.644531 V 18.542969 C 6.8641796,17.541192 5.0019531,14.998262 5.0019531,12.001953 v -0.002 z M 3.9999992,10.5 0.49999998,13.999999 H 7.4999997 L 3.9999988,10.5 m 16.0000002,2.999999 3.5,-3.4999994 h -7 l 3.5,3.4999994"
       transform="scale(0.26458333)"
       sodipodi:nodetypes="ccccccsccscccccccccc" />
  </g>
  <g
     inkscape:groupmode="layer"
     id="g2599"
     inkscape:label="Dark Theme"
     style="display:none"
     sodipodi:insensitive="true">
    <g
       id="g2583"
       transform="translate(0.26458332)">
      <path
         id="path2577"
         style="color:#000000;display:inline;fill:url(#linearGradient2706);fill-opacity:1;fill-rule:evenodd;stroke-width:3.77953;stroke-linecap:square;-inkscape-stroke:none"
         d="M 1.9902344,1.0039062 V 10 H 11.005859 V 1.0039062 H 8.3398438 7.8378906 7.3261719 v 0.4921876 c -5e-7,0.2910826 -0.1570365,0.5575848 -0.4140625,0.703125 -0.2570281,0.1455406 -0.5691459,0.1455406 -0.8261719,0 C 5.8369416,2.0582263 5.6812892,1.8039351 5.671875,1.5234375 c -3.037e-4,-0.00905 0,-0.018247 0,-0.027344 V 1.0039062 H 5.1699219 4.6582031 Z m 1.0136718,0.9941407 h 1.7285157 c 0.1323871,0.4413682 0.4356497,0.8250367 0.8515625,1.0605469 0.5680428,0.3216503 1.2718009,0.3216503 1.8398437,0 C 7.8397324,2.8230872 8.1360597,2.4394017 8.265625,1.9980469 H 9.9921875 V 9.0058594 H 3.0039062 Z"
         transform="scale(0.26458333)" />
      <path
         id="path2581"
         style="display:inline;fill:url(#linearGradient2712);fill-opacity:1;stroke:none;stroke-width:2.82834;stroke-linecap:round;stroke-linejoin:round;paint-order:markers stroke fill"
         d="M 0,3 V 5 H 5 V 3 Z m 8,0 v 2 h 5 V 3 Z M 0,6 V 8 H 5 V 6 Z m 8,0 v 2 h 5 V 6 Z"
         transform="scale(0.26458333)" />
    </g>
    <g
       id="g2593"
       transform="translate(2.6458331,3.4395831)">
      <path
         id="path2587"
         style="color:#000000;display:inline;fill:url(#linearGradient2708);fill-opacity:1;fill-rule:evenodd;stroke-width:3.77953;stroke-linecap:square;-inkscape-stroke:none"
         d="M 1.9902344,1.0039062 V 10 H 11.005859 V 1.0039062 H 8.3398438 7.8378906 7.3261719 v 0.4921876 c -5e-7,0.2910826 -0.1570365,0.5575848 -0.4140625,0.703125 -0.2570281,0.1455406 -0.5691459,0.1455406 -0.8261719,0 C 5.8369416,2.0582263 5.6812892,1.8039351 5.671875,1.5234375 c -3.037e-4,-0.00905 0,-0.018247 0,-0.027344 V 1.0039062 H 5.1699219 4.6582031 Z m 1.0136718,0.9941407 h 1.7285157 c 0.1323871,0.4413682 0.4356497,0.8250367 0.8515625,1.0605469 0.5680428,0.3216503 1.2718009,0.3216503 1.8398437,0 C 7.8397324,2.8230872 8.1360597,2.4394017 8.265625,1.9980469 H 9.9921875 V 9.0058594 H 3.0039062 Z"
         transform="scale(0.26458333)" />
      <path
         id="path2591"
         style="display:inline;fill:url(#linearGradient2710);fill-opacity:1;stroke:none;stroke-width:2.82834;stroke-linecap:round;stroke-linejoin:round;paint-order:markers stroke fill"
         d="M 0,3 V 5 H 5 V 3 Z m 8,0 v 2 h 5 V 3 Z M 0,6 V 8 H 5 V 6 Z m 8,0 v 2 h 5 V 6 Z"
         transform="scale(0.26458333)" />
    </g>
    <path
       id="path1504"
       style="display:inline;opacity:1;fill:url(#linearGradient1507);fill-opacity:1;stroke-width:0.463234;stroke-linecap:square"
       d="M 14.5,3.3574219 V 5.4589844 C 17.135248,6.4605435 18.997237,9.004539 18.998047,12 h 2 C 20.997172,7.9093113 18.247001,4.4443541 14.5,3.3574219 Z M 3.0019531,12 v 0.002 c 0,4.091578 2.7503964,7.557462 6.4980469,8.644531 V 18.542969 C 6.8641796,17.541192 5.0019531,14.998262 5.0019531,12.001953 v -0.002 z M 3.9999992,10.5 0.49999998,13.999999 H 7.4999997 L 3.9999988,10.5 m 16.0000002,2.999999 3.5,-3.4999994 h -7 l 3.5,3.4999994"
       sodipodi:nodetypes="ccccccsccscccccccccc"
       transform="scale(0.26458333)" />
  </g>
  <g
     inkscape:groupmode="layer"
     id="layer6"
     inkscape:label="Top"
     style="display:inline"
     sodipodi:insensitive="true">
    <path
       id="path2394"
       style="color:#000000;display:inline;opacity:1;fill:#dd0f13;fill-opacity:1;fill-rule:evenodd;stroke:none;stroke-width:1.5;stroke-linecap:round;stroke-opacity:1;-inkscape-stroke:none"
       d="m 11.923828,13.251953 a 0.75,0.75 0 0 0 -0.503906,0.275391 0.75,0.75 0 0 0 0.103516,1.054687 L 16.3125,18.5 11.523438,22.421875 a 0.75,0.75 0 0 0 -0.103516,1.054687 0.75,0.75 0 0 0 1.054687,0.103516 l 5.023438,-4.109375 5.023437,4.109375 a 0.75,0.75 0 0 0 1.056641,-0.103516 0.75,0.75 0 0 0 -0.103516,-1.054687 L 18.685547,18.5 23.474609,14.582031 a 0.75,0.75 0 0 0 0.103516,-1.054687 0.75,0.75 0 0 0 -0.501953,-0.273438 0.75,0.75 0 0 0 -0.554688,0.16211 l -5.023437,4.113281 -5.023438,-4.113281 a 0.75,0.75 0 0 0 -0.550781,-0.164063 z"
       transform="matrix(0.26458333,0,0,0.26458333,-0.26432513,1.3740466e-4)" />
  </g>
</svg>
